<?xml version="1.0" standalone="no"?>
<!DOCTYPE svg PUBLIC "-//W3C//DTD SVG 20010904//EN"
 "http://www.w3.org/TR/2001/REC-SVG-20010904/DTD/svg10.dtd">
<svg version="1.0" xmlns="http://www.w3.org/2000/svg"
 width="1280.000000pt" height="843.000000pt" viewBox="0 0 1280.000000 843.000000"
 preserveAspectRatio="xMidYMid meet">
<g transform="translate(0.000000,843.000000) scale(0.100000,-0.100000)"
fill="#000000" stroke="none">
<path d="M235 8411 c-95 -25 -117 -35 -158 -71 -39 -33 -77 -119 -77 -171 0
-39 34 -165 66 -242 57 -142 278 -500 414 -671 90 -114 274 -300 431 -437 349
-305 688 -556 1494 -1104 438 -299 680 -519 730 -664 34 -102 10 -311 -64
-559 -52 -174 -160 -485 -172 -497 -22 -22 -249 126 -341 223 -36 38 -78 96
-94 128 -34 70 -38 74 -89 74 -22 0 -92 9 -155 20 -159 28 -261 26 -325 -3
-94 -44 -199 -184 -232 -309 -14 -56 -15 -73 -4 -121 14 -62 64 -146 135 -224
126 -140 429 -355 661 -471 112 -56 160 -95 171 -138 11 -41 -11 -154 -72
-374 -258 -928 -572 -2096 -566 -2101 4 -3 37 -14 74 -23 62 -17 97 -34 286
-146 80 -47 145 -60 204 -41 37 12 137 108 205 196 21 28 85 115 142 195 174
243 195 263 426 395 118 67 213 158 355 339 178 228 271 315 378 356 42 16 47
22 69 82 16 42 48 95 94 153 90 113 93 120 123 253 28 126 52 178 95 214 40
35 85 41 151 23 119 -34 138 -37 227 -33 51 2 95 7 98 10 3 3 0 31 -9 63 -13
52 -13 58 2 72 25 22 484 280 578 325 54 25 96 38 123 38 44 0 128 -30 431
-152 303 -123 379 -167 698 -402 234 -172 409 -285 697 -446 174 -98 277 -148
675 -330 505 -230 515 -235 541 -272 45 -62 40 -105 -61 -554 -50 -225 -107
-472 -126 -549 -60 -244 -44 -314 93 -399 53 -32 140 -66 172 -66 49 0 165 68
261 153 301 265 893 773 937 804 74 51 118 53 268 13 101 -27 138 -32 230 -32
120 0 212 19 207 43 -2 8 -38 96 -79 196 -42 100 -73 188 -70 195 2 7 274 121
603 252 684 274 1192 485 1226 510 115 85 139 97 281 143 84 27 147 53 147 60
0 23 -126 138 -187 170 -129 69 -238 76 -526 33 -237 -35 -1390 -161 -1399
-152 -4 4 49 113 118 242 241 448 243 454 209 530 -35 77 -189 206 -318 266
-63 29 -158 32 -251 8 -63 -16 -498 -155 -999 -320 -345 -113 -404 -123 -491
-80 -72 35 -201 123 -481 326 -126 91 -443 319 -702 505 -572 409 -541 368
-344 464 124 60 134 64 220 69 50 2 91 5 91 6 0 0 -7 26 -15 56 -8 30 -15 61
-15 67 0 7 45 36 101 63 72 37 98 54 92 63 -5 7 -31 38 -57 71 -26 32 -45 64
-43 70 2 6 26 12 53 14 35 2 59 11 84 31 158 124 187 133 460 142 253 8 300
17 463 91 91 42 94 43 212 44 l120 2 17 35 c40 82 73 99 587 306 265 106 499
195 519 198 20 2 68 -5 106 -15 l68 -20 -7 32 c-19 87 -18 104 4 115 11 6 143
59 293 117 150 58 277 109 281 114 5 4 2 33 -6 64 -12 46 -13 59 -2 69 7 7
406 154 887 326 481 172 881 317 888 321 18 11 -75 126 -155 192 -172 141
-308 156 -705 79 -422 -82 -853 -163 -1440 -271 -333 -61 -688 -126 -790 -145
-102 -19 -383 -70 -625 -115 -242 -44 -597 -109 -790 -145 -192 -35 -654 -114
-1024 -176 -623 -102 -679 -110 -730 -100 -71 14 -118 43 -221 137 -213 193
-523 395 -699 455 -110 38 -206 16 -303 -70 -105 -93 -168 -230 -168 -365 0
-72 4 -91 30 -142 16 -32 48 -81 70 -108 22 -27 37 -53 32 -58 -17 -17 -130
-30 -227 -26 -156 5 -76 -47 -1500 988 -330 240 -670 483 -755 540 -85 57
-198 136 -250 175 -467 352 -879 592 -1206 701 -194 65 -256 75 -524 84 -135
5 -299 11 -365 14 -96 4 -134 2 -190 -13z"/>
</g>
</svg>
