<svg xmlns="http://www.w3.org/2000/svg" width="48" height="48" viewBox="0 0 48 48">
    <g fill="none" fill-rule="evenodd">
        <path d="M0 0H48V48H0z"/>
        <path fill="#8BE0F8" d="M33 7.5H12c-1.657 0-3 1.343-3 3V33c0 1.657 1.343 3 3 3h21c1.657 0 3-1.343 3-3V10.5c0-1.657-1.343-3-3-3z"/>
        <path fill="#00256C" d="M35.5 10.5h-20c-1.933 0-3.5 1.567-3.5 3.5v20c0 1.933 1.567 3.5 3.5 3.5h21.75c.966 0 1.75-.784 1.75-1.75V14c0-1.933-1.567-3.5-3.5-3.5z"/>
        <g stroke="#FFF" stroke-width="1.5" transform="rotate(-45 35.5 -8.63)">
            <circle cx="5.529" cy="5.422" r="4.65"/>
            <path stroke-linecap="round" d="M5.529 10.072L5.529 14.722"/>
        </g>
    </g>
</svg>
