<svg xmlns="http://www.w3.org/2000/svg" width="48" height="48" viewBox="0 0 48 48">
    <g stroke="none" stroke-width="1" fill="none" fill-rule="evenodd">
        <g transform="translate(-898.000000, -628.000000)">
            <g transform="translate(898.000000, 628.000000)">
                <path d="M31.2798,25.7365 L40.2738,23.5725 L41.6258,24.9245 L34.3398,28.7965 L37.9618,32.4185 L41.4468,31.1855 L42.4608,32.1995 L38.2468,35.0625 L35.3838,39.2765 L34.3698,38.2625 L35.6028,34.7775 L31.9798,31.1545 L28.1088,38.4415 L26.7568,37.0905 L28.9208,28.0955 L25.2388,24.4145 C24.6798,23.8545 24.7538,22.8725 25.4048,22.2205 C26.0568,21.5695 27.0388,21.4955 27.5978,22.0545 L31.2798,25.7365 Z" id="Stroke-2" stroke="#000000" stroke-width="1.723" stroke-linecap="round" stroke-linejoin="round"></path>
                <path d="M10,13.54 L23.779,9.066 C24.318,8.944 24.854,9.282 24.975,9.821 C24.992,9.893 25,9.967 25,10.041 L25,13.54" id="Stroke-4" stroke="#000000" stroke-width="2"></path>
                <path d="M23,36.4248 L12,36.4248 C10.895,36.4248 10,35.5298 10,34.4248 L10,13.5398 L27,13.5398 C28.105,13.5398 29,14.4358 29,15.5398 L29,18.7958" id="Stroke-6" stroke="#000000" stroke-width="2" stroke-linecap="round" stroke-linejoin="round"></path>
            </g>
        </g>
    </g>
</svg>