<?xml version="1.0" encoding="UTF-8"?>
<svg width="24px" height="24px" viewBox="0 0 24 24" version="1.1" xmlns="http://www.w3.org/2000/svg" xmlns:xlink="http://www.w3.org/1999/xlink">
    <title>AP_Calendar_Icon</title>
    <g id="AP_Calendar_Icon" stroke="none" stroke-width="1" fill="none" fill-rule="evenodd">
        <g>
            <g id="Icon/Common/24x24/Calendar">
                <rect id="Rectangle" x="0" y="0" width="24" height="24"></rect>
                <g id="Calendar" transform="translate(5.000000, 6.280543)" fill="#000000">
                    <path d="M13,0 C13.5522847,0 14,0.44771525 14,1 L14,12 C14,12.5522847 13.5522847,13 13,13 L1,13 C0.44771525,13 0,12.5522847 0,12 L0,1 C0,0.44771525 0.44771525,0 1,0 L13,0 Z M12.5,1.5 L1.5,1.5 L1.5,11.5 L12.5,11.5 L12.5,1.5 Z" id="Rectangle" fill-rule="nonzero"></path>
                    <rect id="Rectangle" x="9.09494702e-13" y="3.31945701" width="14" height="1.5"></rect>
                </g>
            </g>
            <rect id="Rectangle" fill="#000000" x="8" y="4" width="1.5" height="3" rx="0.75"></rect>
            <rect id="Rectangle" fill="#000000" x="14.5" y="4" width="1.5" height="3" rx="0.75"></rect>
        </g>
    </g>
</svg>